HIERARCHY
ROOT Hips
{
  OFFSET -185.693 86.1554 -105.181
  CHANNELS 6 Xposition Yposition Zposition Zrotation Xrotation Yrotation
  JOINT RightUpLeg
  {
    OFFSET -8.9458 -8.66707 0.101652
    CHANNELS 3 Zrotation Xrotation Yrotation
    JOINT RightLeg
    {
      OFFSET 0 -44.4227 1.3727
      CHANNELS 3 Zrotation Xrotation Yrotation
      JOINT RightFoot
      {
        OFFSET 0.253549 -42.0924 -1.46059
        CHANNELS 3 Zrotation Xrotation Yrotation
        JOINT RightToes
        {
          OFFSET 0.04 -4.41509 8.4991
          CHANNELS 3 Zrotation Xrotation Yrotation
          End Site
          {
            OFFSET -0.08 -0.137448 9.77979
          }
        }
      }
    }
  }
  JOINT Spine
  {
    OFFSET 0 11.8905 0
    CHANNELS 3 Zrotation Xrotation Yrotation
    JOINT Spine1
    {
      OFFSET 0 25.6574 0.127663
      CHANNELS 3 Zrotation Xrotation Yrotation
      JOINT HEad
      {
        OFFSET 0 8.73416 0.011341
        CHANNELS 3 Zrotation Xrotation Yrotation
        End Site
        {
          OFFSET -0.29 12.7742 2.51395
        }
      }
      JOINT LeftShoulder1
      {
        OFFSET 8.99 -0.362252 -0.22
        CHANNELS 3 Zrotation Xrotation Yrotation
        JOINT LeftArm
        {
          OFFSET 10.2827 -0.00338 0.322123
          CHANNELS 3 Zrotation Xrotation Yrotation
          JOINT LeftForeArm
          {
            OFFSET 32.7669 0.099144 -1.42434
            CHANNELS 3 Zrotation Xrotation Yrotation
            JOINT LeftHand
            {
              OFFSET 27.5643 0.085362 1.02216
              CHANNELS 3 Zrotation Xrotation Yrotation
              End Site
              {
                OFFSET 16.7443 -0.6 1.50291
              }
            }
          }
        }
      }
      JOINT RightShoulder
      {
        OFFSET -8.99 -0.362252 -0.22
        CHANNELS 3 Zrotation Xrotation Yrotation
        JOINT RightArm
        {
          OFFSET -10.2827 -0.00338 0.322123
          CHANNELS 3 Zrotation Xrotation Yrotation
          JOINT RightForeArm
          {
            OFFSET -32.8971 0.099144 -1.42434
            CHANNELS 3 Zrotation Xrotation Yrotation
            JOINT RightHand
            {
              OFFSET -27.4921 0.085362 1.02216
              CHANNELS 3 Zrotation Xrotation Yrotation
              End Site
              {
                OFFSET -16.6312 -0.6 1.50291
              }
            }
          }
        }
      }
    }
  }
  JOINT LeftUpLeg
  {
    OFFSET 8.9458 -8.66707 0.101652
    CHANNELS 3 Zrotation Xrotation Yrotation
    JOINT LeftLeg
    {
      OFFSET 0 -44.4227 1.3727
      CHANNELS 3 Zrotation Xrotation Yrotation
      JOINT LeftFoot
      {
        OFFSET -0.253549 -42.0924 -1.46059
        CHANNELS 3 Zrotation Xrotation Yrotation
        JOINT LeftToes
        {
          OFFSET -0.04 -4.41509 8.4991
          CHANNELS 3 Zrotation Xrotation Yrotation
          End Site
          {
            OFFSET 0.08 -0.047448 9.77979
          }
        }
      }
    }
  }
}
MOTION
Frames:	22
Frame Time:	0.0166667
-132.319 85.7283 -159.07 -13.6473 -3.5758 -44.2037 -8.12857 15.4518 14.4433 7.03957 23.4993 8.30982 8.36409 -11.1415 0.06303 -21.4626 -20.8296 -3.98572 2.09759 12.0034 3.01974 7.45051 23.7263 4.51131 -0.648764 -20.0254 20.9911 3.18055e-015 0 -3.18055e-015 -63.7495 -29.1634 -11.8898 -18.1751 37.5245 -91.8222 11.069 7.60157 -20.923 28.7688 7.04388 20.7046 47.9543 -14.9351 66.9861 8.80537 45.2805 130.253 3.98707 7.87724 -51.2263 23.2355 -30.5635 1.54911 -5.09755 63.6909 6.00209 -27.4854 24.2002 7.58825 -11.2385 -26.2712 -22.1566 
-132.42 86.3763 -158.529 -12.7896 -4.83958 -44.3815 -9.80835 13.8666 14.3637 7.59879 26.6152 7.92029 9.68371 -7.11847 -0.214379 -24.5553 -23.2953 -6.24076 1.4629 12.1809 2.96944 6.48629 24.0093 4.35825 -0.150449 -19.8433 22.057 4.77083e-015 -3.18055e-015 -0 -62.2484 -25.9725 -9.95392 -19.2206 36.8016 -90.5182 9.93077 7.76754 -21.9764 29.039 7.0504 20.5405 45.6376 -14.2848 63.7343 8.69144 44.1633 131.051 3.92342 7.88799 -51.5743 23.123 -30.6083 2.53172 -6.19148 63.0924 4.01444 -33.0835 29.2891 10.7357 -10.2181 -23.8643 -23.4768 
-132.438 87.214 -157.83 -11.8408 -6.20797 -44.908 -11.768 11.3368 13.7272 7.93539 30.7045 7.74094 11.6742 -0.316661 -0.875055 -29.7958 -26.9979 -9.731 0.779443 12.307 2.88425 5.31799 24.2216 4.18519 0.086198 -18.9468 23.4479 1.59028e-015 3.18055e-015 3.18055e-015 -60.0684 -23.4271 -7.9292 -20.5723 35.9993 -88.9259 8.36672 8.04117 -23.2661 29.1723 7.03807 20.4114 43.6123 -13.1025 60.0441 9.12129 43.165 131.075 3.79407 7.94989 -51.4508 22.867 -29.9649 3.43966 -7.82842 61.957 1.1116 -37.6805 31.3028 13.033 -8.08967 -20.205 -21.9762 
-132.38 88.1111 -157.042 -10.9726 -7.4981 -45.7696 -13.5551 8.01095 12.3968 7.21187 35.2518 7.6139 15.3183 9.8311 -2.39875 -38.2243 -32.1808 -13.7726 0.143747 12.3999 2.7413 4.13381 24.4098 3.94969 -0.0254476 -17.7191 25.2145 -1.59028e-015 -4.77083e-015 -6.36111e-015 -57.4246 -22.0577 -5.85718 -21.877 35.3272 -87.5932 6.69873 8.38089 -24.486 28.947 6.99889 20.44 42.2541 -11.4237 56.6875 9.8394 42.3327 130.356 3.53177 8.08696 -50.9119 22.549 -28.7738 3.95861 -9.21866 60.3531 -3.10752 -40.3687 30.6247 13.7963 -5.94541 -16.3558 -19.5874 
-132.263 88.9051 -156.257 -10.2647 -8.58704 -46.9001 -14.955 4.19758 10.5281 4.71974 39.5337 7.30424 22.2309 22.9582 -5.95694 -50.8246 -39.1548 -17.2871 -0.473056 12.4903 2.57306 3.06674 24.618 3.65522 -0.490115 -16.5552 27.2566 -1.59028e-015 -4.77083e-015 -3.18055e-015 -54.4884 -22.2043 -3.85879 -22.9097 34.9772 -86.7652 5.35547 8.68272 -25.4227 28.2932 6.92156 20.6414 41.6017 -9.41178 54.2215 10.5599 41.611 129.139 3.15413 8.27862 -50.1441 22.2375 -27.2641 3.85199 -9.86242 58.3948 -7.39472 -40.586 28.4903 13.0918 -4.60677 -13.6944 -18.095 
-132.102 89.4979 -155.516 -9.80315 -9.372 -48.2472 -15.7415 0.309995 8.51046 0.285381 43.1176 7.49284 33.1442 35.9375 -12.8658 -65.198 -46.5818 -19.8627 -0.97535 12.5835 2.40796 2.20597 24.8634 3.36911 -1.22377 -15.7217 29.3908 1.59028e-015 0 -9.54166e-015 -51.318 -24.0292 -2.01755 -23.6816 34.9856 -86.3049 4.52592 8.87705 -26.0948 27.335 6.81968 20.9874 41.4712 -7.34294 52.8922 11.0821 41.0113 127.699 2.79831 8.45548 -49.3654 22.1095 -25.541 3.00068 -9.80574 56.0892 -9.22366 -38.2441 26.481 11.5817 -4.58372 -13.6199 -18.2848 
-131.892 89.929 -154.747 -9.71292 -9.72621 -49.7521 -15.5307 -3.45782 6.84474 -5.26238 46.0115 9.72436 45.9816 44.2713 -21.921 -76.0428 -52.1162 -21.1899 -1.02168 12.664 2.19738 1.64622 25.1397 3.14044 -2.09705 -15.365 31.4934 -1.59028e-015 0 3.18055e-015 -47.8578 -27.6303 -0.314722 -24.3871 35.2691 -85.7396 4.13808 8.96368 -26.6512 26.242 6.72784 21.4886 41.6736 -5.51495 52.6986 11.3133 40.6323 126.191 2.62339 8.55 -48.6945 22.4017 -23.5291 1.34175 -9.46512 53.2399 -6.45594 -33.4855 25.6192 9.78116 -5.98646 -16.4125 -19.7506 
-131.649 90.1483 -153.891 -9.97702 -9.62895 -51.2879 -14.3402 -7.0593 6.00043 -10.2606 48.0678 13.8898 56.6581 46.9375 -29.1497 -82.3557 -55.3329 -21.876 -0.640921 12.7524 1.93807 1.43441 25.4444 2.93621 -2.98598 -15.5287 33.5399 -3.18055e-015 0 -0 -43.9601 -32.9912 1.30604 -25.3782 35.6803 -84.3118 4.03173 8.97472 -27.2401 25.106 6.66636 22.1656 42.0852 -4.08742 53.4722 11.2262 40.5242 124.683 2.69622 8.53924 -48.1532 23.2428 -21.3185 -1.13641 -9.30778 49.9221 1.22731 -26.5173 25.2723 7.55435 -8.03703 -20.4082 -20.8051 
-131.461 90.073 -152.982 -10.4684 -9.17982 -52.6526 -12.6158 -10.1577 6.01663 -13.0899 48.8587 18.1603 62.8965 46.1252 -32.3757 -86.2346 -56.9136 -22.9901 -0.149755 12.8531 1.68695 1.56224 25.7506 2.66884 -3.81391 -16.1051 35.5314 -1.59028e-015 1.59028e-015 -3.18055e-015 -39.4506 -39.8327 2.83193 -27.2048 35.9681 -81.0352 3.98003 8.96622 -27.9964 23.9793 6.63458 22.9936 42.5786 -3.07318 54.9039 10.8826 40.6459 123.219 2.94981 8.45427 -47.7179 24.6358 -19.0628 -4.304 -9.46297 46.3079 11.9608 -18.5882 23.5964 4.93507 -8.71406 -22.4031 -18.7681 
-131.429 89.663 -152.017 -11.0372 -8.54674 -53.5677 -10.931 -12.2456 6.48785 -13.1964 48.1513 21.0725 65.1017 43.9509 -32.3261 -88.4205 -57.4727 -24.1688 0.173468 12.9308 1.44291 1.96913 25.9863 2.23234 -4.56415 -16.8134 37.4141 1.59028e-015 -4.77083e-015 -3.18055e-015 -34.303 -47.5094 4.06648 -30.2669 35.5682 -75.0238 3.70632 9.01512 -29.0521 22.9391 6.63788 23.9381 43.0542 -2.51842 56.5784 10.5095 41.0156 121.76 3.21094 8.36745 -47.3092 26.4112 -16.9363 -7.7928 -9.71471 42.6138 22.8583 -12.181 19.6709 2.76814 -6.58322 -19.3917 -12.6798 
-131.653 88.9274 -151.008 -11.5392 -7.98791 -53.7695 -9.78567 -12.9439 6.93884 -11.3763 46.1572 22.1559 64.4082 41.7865 -30.5573 -89.206 -57.4001 -25.0527 0.133725 12.9373 1.1537 2.5348 26.0603 1.49106 -5.22169 -17.2853 39.0991 1.59028e-015 1.59028e-015 -0 -28.9721 -55.018 4.41085 -34.0591 33.4361 -66.1967 2.99968 9.19451 -30.4448 22.0834 6.70414 25.0163 43.5483 -2.60165 58.0782 10.4807 41.8175 120.152 3.29172 8.3573 -46.7759 28.2359 -15.0712 -11.0664 -9.70193 38.9948 31.6778 -8.93241 14.6616 1.631 -3.06057 -11.039 -5.37563 
-132.151 87.9012 -149.962 -11.9208 -7.75397 -53.0653 -9.38311 -12.2583 7.10726 -8.99927 43.8504 21.6789 61.1461 40.1018 -27.7436 -89.4028 -56.743 -26.3696 -0.144455 12.8576 0.70215 3.12611 25.9285 0.290674 -5.70219 -17.2109 40.551 -3.18055e-015 1.59028e-015 -3.18055e-015 -26.9963 -56.4382 0.524524 -34.551 23.9382 -59.1049 1.33562 9.70207 -31.5288 21.5117 6.86815 26.2535 44.1664 -3.49898 59.1014 11.159 43.2252 118.196 3.09982 8.46419 -45.905 29.7514 -13.5762 -13.5358 -9.12773 35.6325 37.1587 -8.33972 10.5924 1.24553 -0.297516 -1.11615 0.0745939 
-132.823 86.7139 -148.862 -12.2425 -8.00017 -51.3346 -9.5782 -10.5839 7.02648 -6.8197 42.7944 20.2693 54.0786 37.8017 -22.8957 -87.874 -55.0797 -27.814 -0.249669 12.7439 -0.0423465 3.66778 25.6464 -1.47129 -5.9007 -16.4855 41.7918 3.18055e-015 1.59028e-015 -3.18055e-015 -27.3219 -48.6525 -6.91476 -31.4367 4.42824 -55.1879 -1.65843 10.6635 -31.8991 21.3173 7.13132 27.5209 44.8451 -5.16824 59.5281 12.7133 45.0975 115.819 2.68796 8.66728 -44.4685 30.7019 -12.4654 -14.6526 -7.84618 32.5561 38.6055 -8.66711 9.1279 1.19651 1.01664 5.43413 3.16161 
-133.539 85.5387 -147.688 -12.6141 -8.77127 -48.4894 -10.0753 -8.25684 6.87293 -4.58275 43.9722 18.4492 42.7663 32.6539 -15.6094 -81.2994 -51.8971 -27.2244 0.174877 12.6666 -1.14098 4.18611 25.348 -3.76214 -5.81147 -15.3165 42.7924 1.59028e-015 0 -1.27222e-014 -25.1955 -38.1977 -13.7399 -28.319 -18.3354 -50.1656 -5.07868 11.7447 -31.5832 21.6 7.42914 28.3949 45.1799 -7.25917 59.3956 14.9906 46.8892 113.274 2.22022 8.89816 -42.3117 31.0157 -11.7402 -14.0656 -5.96427 29.7881 35.9644 -8.50148 10.6655 1.27626 1.00664 6.16231 4.50851 
-134.271 84.4084 -146.457 -13.0626 -10.0163 -44.521 -10.6335 -5.20083 6.73465 -1.61238 46.6335 15.8002 30.5926 24.7251 -8.76602 -70.3504 -47.2524 -24.8374 1.00095 12.6396 -2.47139 4.7856 25.1458 -6.33801 -5.5445 -14.175 43.3693 1.59028e-015 1.59028e-015 -6.36111e-015 -21.6615 -29.9719 -20.3691 -24.5559 -38.0721 -42.8825 -7.31055 12.3536 -30.2499 22.5122 7.64224 28.2188 44.4721 -9.22795 58.7501 17.4505 47.8885 111.298 1.93131 9.06877 -39.4708 30.7999 -11.6277 -11.8306 -3.79857 27.8535 30.026 -7.82329 13.9887 1.37333 0.0113197 1.64363 4.54334 
-135.08 83.2882 -145.219 -13.4778 -11.5094 -39.6496 -10.9599 -1.4802 6.67773 2.26765 49.0631 11.1929 21.3688 18.0121 -4.81869 -61.1641 -42.7241 -23.9166 1.74448 12.6455 -3.6915 5.58161 25.0403 -8.73201 -5.21493 -13.5522 43.185 -0 0 3.18055e-015 -19.4122 -25.954 -27.4854 -18.5097 -50.7169 -33.9473 -6.92826 12.0774 -28.0163 24.1663 7.62841 26.4695 42.1069 -10.5965 57.4804 19.2517 47.5769 111.029 2.11187 9.09585 -36.3438 30.3364 -12.4847 -8.56263 -1.62589 27.4545 22.1881 -7.53535 17.1854 1.50929 -1.53422 -5.48853 3.42477 
-136.001 82.3299 -143.939 -13.7025 -12.8703 -34.296 -10.6393 2.36827 6.75325 6.30408 50.3473 4.97175 15.9264 14.6595 -3.13099 -56.4132 -39.8511 -24.8802 2.21875 12.6463 -4.46043 6.5553 24.9028 -10.3868 -4.84984 -13.6883 41.8575 -8.82781e-032 -1.59028e-015 -3.18055e-015 -20.4539 -24.6474 -34.8702 -12.4907 -55.8875 -28.1974 -3.818 11.0815 -25.3879 26.3293 7.26099 23.2485 38.2515 -11.2222 55.3591 19.6717 45.9287 113.402 3.00158 8.93115 -33.811 29.9295 -14.2607 -5.30124 0.387291 28.335 14.0699 -8.33239 19.2694 1.82103 -3.24369 -12.4178 1.22921 
-137.066 81.7271 -142.529 -13.515 -13.8456 -28.8127 -9.61372 5.85444 6.8948 9.66413 50.5566 -1.30998 13.3915 13.1478 -2.46606 -54.0246 -38.2328 -26.0143 2.50477 12.5318 -4.62285 7.38328 24.5346 -10.8733 -4.38626 -14.3826 39.1045 0 4.77083e-015 -0 -25.7666 -24.7932 -41.8625 -11.557 -53.6562 -31.0266 0.498353 9.95022 -22.8035 28.3717 6.54999 19.3865 34.1333 -11.4288 52.3072 18.6782 43.523 118.273 4.49806 8.58125 -32.9807 29.5699 -16.5268 -3.04272 1.94448 29.53 7.15224 -10.4162 20.4424 2.4113 -4.88957 -17.6435 -1.99643 
-138.289 81.5557 -140.934 -12.6174 -14.4238 -23.2988 -8.35884 8.86327 7.04327 12.3305 49.9124 -6.79902 12.4284 11.5874 -2.13167 -51.5263 -36.8767 -26.2234 2.57391 12.1821 -4.19749 7.51064 23.7803 -10.056 -3.66706 -15.0206 34.8328 -1.59028e-015 3.18055e-015 -9.54166e-015 -36.0244 -26.8522 -47.7908 -15.3567 -42.1131 -39.6803 4.0358 9.17445 -20.6167 29.671 5.70965 15.935 31.2903 -11.9309 48.7152 16.991 41.3708 124.272 5.98511 8.10316 -34.6101 28.8922 -18.7684 -2.22837 2.66191 30.1456 2.14209 -13.372 21.0347 3.20594 -6.2552 -20.7486 -5.67642 
-139.614 81.7605 -139.157 -10.859 -14.6579 -17.7088 -7.42511 11.5491 7.17875 14.694 48.4313 -11.5275 11.9461 9.35713 -1.83349 -47.9557 -35.2282 -25.4602 2.32054 11.569 -3.30634 6.55853 22.629 -8.11183 -2.44527 -15.022 29.1902 -2.38542e-015 -1.59028e-015 -9.54166e-015 -49.7839 -30.8112 -51.5674 -20.4633 -21.7533 -47.125 6.22366 8.74798 -19.5697 29.8548 4.99224 13.5924 30.6627 -13.671 45.6803 15.6409 40.5582 129.391 6.64458 7.64696 -38.6358 27.53 -20.6577 -2.50661 2.56204 29.8447 -1.51638 -16.2963 20.7614 3.90843 -6.94272 -21.7021 -8.4327 
-140.888 82.2012 -137.255 -8.4631 -14.5238 -12.1676 -6.9717 14.0461 7.22726 16.7215 46.1609 -15.4709 11.5148 6.84708 -1.53475 -43.7071 -33.266 -24.2355 1.77181 10.7969 -2.06694 4.62424 21.2634 -5.33934 -0.580676 -14.3894 22.5466 7.95139e-016 -1.59028e-015 3.18055e-015 -61.3772 -34.7603 -51.1816 -26.0019 0.159568 -51.0997 7.39734 8.46182 -20.2341 28.6746 4.50254 12.565 32.5607 -17.7331 44.899 15.6286 41.8946 131.269 5.99329 7.51344 -43.7892 25.4885 -22.1501 -2.97012 2.1712 28.9079 -5.00735 -18.4123 19.2014 4.19829 -6.70427 -20.7811 -9.19884 
-141.925 82.7388 -135.342 -5.93111 -14.0233 -7.15272 -6.80424 16.3143 7.14703 17.943 43.4442 -18.2831 11.2151 4.65418 -1.29753 -39.5649 -31.2567 -22.9888 1.0575 10.0644 -0.502052 2.12739 20.0103 -1.88535 1.69021 -13.7029 15.3611 3.97569e-016 -3.18055e-015 -1.59028e-015 -65.9472 -36.5955 -45.4718 -31.0468 16.2672 -53.0063 7.72504 8.26128 -22.2738 25.8876 4.16712 12.7237 37.4766 -24.8951 48.1978 17.8393 45.4809 127.141 4.13721 7.9873 -47.6891 23.145 -23.2583 -2.8085 1.99209 27.8245 -8.89417 -19.5246 16.6363 4.03983 -5.86534 -18.7777 -8.24445 
